G04 #@! TF.GenerationSoftware,KiCad,Pcbnew,(5.1.4)-1*
G04 #@! TF.CreationDate,2019-10-10T22:11:15+02:00*
G04 #@! TF.ProjectId,WirelessTouchLight,57697265-6c65-4737-9354-6f7563684c69,rev?*
G04 #@! TF.SameCoordinates,Original*
G04 #@! TF.FileFunction,Legend,Top*
G04 #@! TF.FilePolarity,Positive*
%FSLAX46Y46*%
G04 Gerber Fmt 4.6, Leading zero omitted, Abs format (unit mm)*
G04 Created by KiCad (PCBNEW (5.1.4)-1) date 2019-10-10 22:11:15*
%MOMM*%
%LPD*%
G04 APERTURE LIST*
%ADD10C,0.150000*%
%ADD11C,0.120000*%
G04 APERTURE END LIST*
D10*
X60039285Y-66444761D02*
X60182142Y-66492380D01*
X60420238Y-66492380D01*
X60515476Y-66444761D01*
X60563095Y-66397142D01*
X60610714Y-66301904D01*
X60610714Y-66206666D01*
X60563095Y-66111428D01*
X60515476Y-66063809D01*
X60420238Y-66016190D01*
X60229761Y-65968571D01*
X60134523Y-65920952D01*
X60086904Y-65873333D01*
X60039285Y-65778095D01*
X60039285Y-65682857D01*
X60086904Y-65587619D01*
X60134523Y-65540000D01*
X60229761Y-65492380D01*
X60467857Y-65492380D01*
X60610714Y-65540000D01*
X54768761Y-65492380D02*
X54959238Y-65492380D01*
X55054476Y-65540000D01*
X55149714Y-65635238D01*
X55197333Y-65825714D01*
X55197333Y-66159047D01*
X55149714Y-66349523D01*
X55054476Y-66444761D01*
X54959238Y-66492380D01*
X54768761Y-66492380D01*
X54673523Y-66444761D01*
X54578285Y-66349523D01*
X54530666Y-66159047D01*
X54530666Y-65825714D01*
X54578285Y-65635238D01*
X54673523Y-65540000D01*
X54768761Y-65492380D01*
X49625285Y-66492380D02*
X49625285Y-65492380D01*
X50196714Y-66492380D01*
X50196714Y-65492380D01*
X45267523Y-66492380D02*
X44791333Y-66492380D01*
X44791333Y-65492380D01*
D11*
X62880000Y-54915000D02*
X61580000Y-54915000D01*
X62230000Y-54315000D02*
X62230000Y-55515000D01*
X61048811Y-61034998D02*
G75*
G02X61050000Y-56994307I1181189J2019998D01*
G01*
X63411189Y-61034998D02*
G75*
G03X63410000Y-56994307I-1181189J2019998D01*
G01*
D10*
X59690000Y-66167000D02*
X59690000Y-52197000D01*
X55880000Y-52197000D02*
X55880000Y-66167000D01*
X55880000Y-52197000D02*
X59690000Y-52197000D01*
X59690000Y-66167000D02*
X55880000Y-66167000D01*
X42050000Y-52020000D02*
X62250000Y-52020000D01*
X42050000Y-18020000D02*
X42050000Y-52020000D01*
X42250000Y-18020000D02*
X42050000Y-18020000D01*
X62250000Y-18020000D02*
X42250000Y-18020000D01*
X62250000Y-52020000D02*
X62250000Y-18020000D01*
D11*
X50105000Y-59845000D02*
X47705000Y-59845000D01*
X50165000Y-60085000D02*
X47625000Y-61355000D01*
X48895000Y-61595000D02*
X48895000Y-62865000D01*
X48895000Y-62865000D02*
X50165000Y-62865000D01*
X50165000Y-55245000D02*
X48895000Y-55245000D01*
X48895000Y-55245000D02*
X48895000Y-56515000D01*
X48895000Y-56515000D02*
X47625000Y-56515000D01*
X47625000Y-56515000D02*
X47625000Y-61595000D01*
X47625000Y-61595000D02*
X50165000Y-61595000D01*
X50165000Y-61595000D02*
X50165000Y-56515000D01*
X50165000Y-56515000D02*
X48895000Y-56515000D01*
X39875000Y-53805000D02*
X55375000Y-53805000D01*
X55375000Y-53805000D02*
X55375000Y-64305000D01*
X55375000Y-64305000D02*
X39875000Y-64305000D01*
X39875000Y-64305000D02*
X39875000Y-53805000D01*
D10*
X62705000Y-66675000D02*
X62705000Y-79375000D01*
X57705000Y-66675000D02*
X57705000Y-79375000D01*
X59905000Y-78575000D02*
G75*
G03X59105000Y-79375000I0J-800000D01*
G01*
X60705000Y-79375000D02*
G75*
G03X59905000Y-78575000I-800000J0D01*
G01*
X55705000Y-79375000D02*
G75*
G03X54905000Y-78575000I-800000J0D01*
G01*
X54905000Y-78575000D02*
G75*
G03X54105000Y-79375000I0J-800000D01*
G01*
X49905000Y-78575000D02*
G75*
G03X49105000Y-79375000I0J-800000D01*
G01*
X50705000Y-79375000D02*
G75*
G03X49905000Y-78575000I-800000J0D01*
G01*
X44905000Y-78575000D02*
G75*
G03X44105000Y-79375000I0J-800000D01*
G01*
X45705000Y-79375000D02*
G75*
G03X44905000Y-78575000I-800000J0D01*
G01*
X47705000Y-79375000D02*
X47705000Y-66675000D01*
X42705000Y-79375000D02*
X42705000Y-66675000D01*
X41705000Y-79375000D02*
X41705000Y-66675000D01*
X41705000Y-66675000D02*
X62705000Y-66675000D01*
X52705000Y-66675000D02*
X52705000Y-79375000D01*
X62705000Y-79375000D02*
X41705000Y-79375000D01*
X62587142Y-59181666D02*
X62634761Y-59229285D01*
X62682380Y-59372142D01*
X62682380Y-59467380D01*
X62634761Y-59610238D01*
X62539523Y-59705476D01*
X62444285Y-59753095D01*
X62253809Y-59800714D01*
X62110952Y-59800714D01*
X61920476Y-59753095D01*
X61825238Y-59705476D01*
X61730000Y-59610238D01*
X61682380Y-59467380D01*
X61682380Y-59372142D01*
X61730000Y-59229285D01*
X61777619Y-59181666D01*
X62682380Y-58229285D02*
X62682380Y-58800714D01*
X62682380Y-58515000D02*
X61682380Y-58515000D01*
X61825238Y-58610238D01*
X61920476Y-58705476D01*
X61968095Y-58800714D01*
X57451666Y-64698571D02*
X57118333Y-64698571D01*
X57118333Y-65222380D02*
X57118333Y-64222380D01*
X57594523Y-64222380D01*
X58499285Y-65222380D02*
X57927857Y-65222380D01*
X58213571Y-65222380D02*
X58213571Y-64222380D01*
X58118333Y-64365238D01*
X58023095Y-64460476D01*
X57927857Y-64508095D01*
X52602380Y-35353333D02*
X53316666Y-35353333D01*
X53459523Y-35400952D01*
X53554761Y-35496190D01*
X53602380Y-35639047D01*
X53602380Y-35734285D01*
X52697619Y-34924761D02*
X52650000Y-34877142D01*
X52602380Y-34781904D01*
X52602380Y-34543809D01*
X52650000Y-34448571D01*
X52697619Y-34400952D01*
X52792857Y-34353333D01*
X52888095Y-34353333D01*
X53030952Y-34400952D01*
X53602380Y-34972380D01*
X53602380Y-34353333D01*
X52601904Y-59507380D02*
X52601904Y-58507380D01*
X53173333Y-59507380D02*
X52744761Y-58935952D01*
X53173333Y-58507380D02*
X52601904Y-59078809D01*
X54125714Y-59507380D02*
X53554285Y-59507380D01*
X53840000Y-59507380D02*
X53840000Y-58507380D01*
X53744761Y-58650238D01*
X53649523Y-58745476D01*
X53554285Y-58793095D01*
X52371666Y-79970380D02*
X52371666Y-80684666D01*
X52324047Y-80827523D01*
X52228809Y-80922761D01*
X52085952Y-80970380D01*
X51990714Y-80970380D01*
X53371666Y-80970380D02*
X52800238Y-80970380D01*
X53085952Y-80970380D02*
X53085952Y-79970380D01*
X52990714Y-80113238D01*
X52895476Y-80208476D01*
X52800238Y-80256095D01*
M02*
