M48
; DRILL file {KiCad (5.1.4)-1} date 10/10/2019 22:11:14
; FORMAT={3:3/ absolute / metric / suppress leading zeros}
; #@! TF.CreationDate,2019-10-10T22:11:14+02:00
; #@! TF.GenerationSoftware,Kicad,Pcbnew,(5.1.4)-1
FMAT,2
METRIC,TZ
T1C0.800
T2C1.000
T3C1.016
T4C1.200
%
G90
G05
T1
X62230Y-56515
X62230Y-61515
T2
X44450Y-20320
X49650Y-49720
X54650Y-49720
X59850Y-20320
X41275Y-55245
X41275Y-62865
X51435Y-55245
X51435Y-62865
X53975Y-55245
X53975Y-62865
T3
X40640Y-24765
X40640Y-27305
X40640Y-29845
X40640Y-32385
X40640Y-34925
X40640Y-37465
X40640Y-40005
X40640Y-42545
X63500Y-24765
X63500Y-27305
X63500Y-29845
X63500Y-32385
X63500Y-34925
X63500Y-37465
X63500Y-40005
X63500Y-42545
T4
X44905Y-69675
X44905Y-74675
X49905Y-69675
X49905Y-74675
X54905Y-69675
X54905Y-74675
X59905Y-69675
X59905Y-74675
X57785Y-56515
X57785Y-61849
T0
M30
