G04 #@! TF.GenerationSoftware,KiCad,Pcbnew,(5.1.4)-1*
G04 #@! TF.CreationDate,2019-10-10T22:11:15+02:00*
G04 #@! TF.ProjectId,WirelessTouchLight,57697265-6c65-4737-9354-6f7563684c69,rev?*
G04 #@! TF.SameCoordinates,Original*
G04 #@! TF.FileFunction,Copper,L2,Bot*
G04 #@! TF.FilePolarity,Positive*
%FSLAX46Y46*%
G04 Gerber Fmt 4.6, Leading zero omitted, Abs format (unit mm)*
G04 Created by KiCad (PCBNEW (5.1.4)-1) date 2019-10-10 22:11:15*
%MOMM*%
%LPD*%
G04 APERTURE LIST*
%ADD10C,1.600000*%
%ADD11R,1.600000X1.600000*%
%ADD12R,1.800000X3.500000*%
%ADD13R,2.500000X2.500000*%
%ADD14O,2.500000X2.500000*%
%ADD15C,2.500000*%
%ADD16C,2.000000*%
%ADD17R,0.800000X1.900000*%
%ADD18R,1.300000X1.500000*%
%ADD19C,1.800000*%
%ADD20C,0.250000*%
%ADD21C,0.500000*%
G04 APERTURE END LIST*
D10*
X62230000Y-61515000D03*
D11*
X62230000Y-56515000D03*
D12*
X46355000Y-61595000D03*
X46355000Y-56595000D03*
D13*
X57785000Y-61849000D03*
D14*
X57785000Y-56515000D03*
D15*
X49650000Y-49720000D03*
X54650000Y-49720000D03*
X44450000Y-20320000D03*
X59850000Y-20320000D03*
D16*
X41275000Y-55245000D03*
X41275000Y-62865000D03*
X51435000Y-55245000D03*
X53975000Y-62865000D03*
X51435000Y-62865000D03*
X53975000Y-55245000D03*
D17*
X47945000Y-44910000D03*
X48895000Y-41910000D03*
X46995000Y-41910000D03*
D18*
X46990000Y-34290000D03*
X46990000Y-36990000D03*
X59690000Y-32385000D03*
X59690000Y-35085000D03*
D19*
X63500000Y-42545000D03*
X40640000Y-42545000D03*
X63500000Y-40005000D03*
X40640000Y-40005000D03*
X63500000Y-37465000D03*
X40640000Y-37465000D03*
X63500000Y-34925000D03*
X40640000Y-34925000D03*
X63500000Y-32385000D03*
X40640000Y-32385000D03*
X63500000Y-29845000D03*
X40640000Y-29845000D03*
X63500000Y-27305000D03*
X40640000Y-27305000D03*
X63500000Y-24765000D03*
X40640000Y-24765000D03*
D15*
X59905000Y-74675000D03*
X59905000Y-69675000D03*
X54905000Y-74675000D03*
X54905000Y-69675000D03*
X49905000Y-74675000D03*
X49905000Y-69675000D03*
X44905000Y-74675000D03*
X44905000Y-69675000D03*
D20*
X62230000Y-67350000D02*
X59905000Y-69675000D01*
X62230000Y-61515000D02*
X62230000Y-67350000D01*
X59905000Y-69675000D02*
X59905000Y-74675000D01*
X63500000Y-32385000D02*
X59690000Y-32385000D01*
X45205000Y-61595000D02*
X43815000Y-60205000D01*
X46355000Y-61595000D02*
X45205000Y-61595000D01*
X47945000Y-46110000D02*
X47945000Y-44910000D01*
X43815000Y-50240000D02*
X47945000Y-46110000D01*
X43815000Y-60205000D02*
X43815000Y-50240000D01*
X50165000Y-61595000D02*
X46355000Y-61595000D01*
X51435000Y-62865000D02*
X50165000Y-61595000D01*
X59850000Y-20320000D02*
X57150000Y-23020000D01*
X57150000Y-36195000D02*
X63500000Y-42545000D01*
X57150000Y-23020000D02*
X57150000Y-36195000D01*
X62600001Y-43444999D02*
X62600001Y-45984999D01*
X63500000Y-42545000D02*
X62600001Y-43444999D01*
X62600001Y-45984999D02*
X55880000Y-52705000D01*
X53975000Y-52705000D02*
X51435000Y-55245000D01*
X55880000Y-52705000D02*
X53975000Y-52705000D01*
X47705000Y-55245000D02*
X46355000Y-56595000D01*
X51435000Y-55245000D02*
X47705000Y-55245000D01*
D21*
X57785000Y-66795000D02*
X54905000Y-69675000D01*
X57785000Y-61849000D02*
X57785000Y-66795000D01*
X54905000Y-69675000D02*
X54905000Y-74675000D01*
X53975000Y-60325000D02*
X53975000Y-62865000D01*
X57785000Y-56515000D02*
X53975000Y-60325000D01*
X41275000Y-55245000D02*
X41275000Y-62865000D01*
X41275000Y-66045000D02*
X44905000Y-69675000D01*
X41275000Y-62865000D02*
X41275000Y-66045000D01*
X44905000Y-69675000D02*
X44905000Y-74675000D01*
D20*
X48895000Y-24765000D02*
X44450000Y-20320000D01*
X48895000Y-41910000D02*
X48895000Y-24765000D01*
X46990000Y-41905000D02*
X46995000Y-41910000D01*
X46990000Y-36990000D02*
X46990000Y-41905000D01*
X45085000Y-34290000D02*
X46990000Y-34290000D01*
X40640000Y-29845000D02*
X45085000Y-34290000D01*
X59850000Y-34925000D02*
X59690000Y-35085000D01*
X63500000Y-34925000D02*
X59850000Y-34925000D01*
M02*
