G04 #@! TF.GenerationSoftware,KiCad,Pcbnew,(5.1.4)-1*
G04 #@! TF.CreationDate,2019-10-10T22:11:15+02:00*
G04 #@! TF.ProjectId,WirelessTouchLight,57697265-6c65-4737-9354-6f7563684c69,rev?*
G04 #@! TF.SameCoordinates,Original*
G04 #@! TF.FileFunction,Legend,Bot*
G04 #@! TF.FilePolarity,Positive*
%FSLAX46Y46*%
G04 Gerber Fmt 4.6, Leading zero omitted, Abs format (unit mm)*
G04 Created by KiCad (PCBNEW (5.1.4)-1) date 2019-10-10 22:11:15*
%MOMM*%
%LPD*%
G04 APERTURE LIST*
%ADD10C,0.300000*%
%ADD11C,0.120000*%
%ADD12C,0.150000*%
G04 APERTURE END LIST*
D10*
X60372571Y-78458142D02*
X60158285Y-78529571D01*
X59801142Y-78529571D01*
X59658285Y-78458142D01*
X59586857Y-78386714D01*
X59515428Y-78243857D01*
X59515428Y-78101000D01*
X59586857Y-77958142D01*
X59658285Y-77886714D01*
X59801142Y-77815285D01*
X60086857Y-77743857D01*
X60229714Y-77672428D01*
X60301142Y-77601000D01*
X60372571Y-77458142D01*
X60372571Y-77315285D01*
X60301142Y-77172428D01*
X60229714Y-77101000D01*
X60086857Y-77029571D01*
X59729714Y-77029571D01*
X59515428Y-77101000D01*
X55133857Y-77029571D02*
X54848142Y-77029571D01*
X54705285Y-77101000D01*
X54562428Y-77243857D01*
X54491000Y-77529571D01*
X54491000Y-78029571D01*
X54562428Y-78315285D01*
X54705285Y-78458142D01*
X54848142Y-78529571D01*
X55133857Y-78529571D01*
X55276714Y-78458142D01*
X55419571Y-78315285D01*
X55491000Y-78029571D01*
X55491000Y-77529571D01*
X55419571Y-77243857D01*
X55276714Y-77101000D01*
X55133857Y-77029571D01*
X50466571Y-78656571D02*
X50466571Y-77156571D01*
X49609428Y-78656571D01*
X49609428Y-77156571D01*
X44493714Y-78656571D02*
X45208000Y-78656571D01*
X45208000Y-77156571D01*
X51878571Y-22742142D02*
X53378571Y-23099285D01*
X52307142Y-23385000D01*
X53378571Y-23670714D01*
X51878571Y-24027857D01*
X53378571Y-24599285D02*
X52378571Y-24599285D01*
X51878571Y-24599285D02*
X51950000Y-24527857D01*
X52021428Y-24599285D01*
X51950000Y-24670714D01*
X51878571Y-24599285D01*
X52021428Y-24599285D01*
X53378571Y-25313571D02*
X52378571Y-25313571D01*
X52664285Y-25313571D02*
X52521428Y-25385000D01*
X52450000Y-25456428D01*
X52378571Y-25599285D01*
X52378571Y-25742142D01*
X53307142Y-26813571D02*
X53378571Y-26670714D01*
X53378571Y-26385000D01*
X53307142Y-26242142D01*
X53164285Y-26170714D01*
X52592857Y-26170714D01*
X52450000Y-26242142D01*
X52378571Y-26385000D01*
X52378571Y-26670714D01*
X52450000Y-26813571D01*
X52592857Y-26885000D01*
X52735714Y-26885000D01*
X52878571Y-26170714D01*
X53378571Y-27742142D02*
X53307142Y-27599285D01*
X53164285Y-27527857D01*
X51878571Y-27527857D01*
X53307142Y-28885000D02*
X53378571Y-28742142D01*
X53378571Y-28456428D01*
X53307142Y-28313571D01*
X53164285Y-28242142D01*
X52592857Y-28242142D01*
X52450000Y-28313571D01*
X52378571Y-28456428D01*
X52378571Y-28742142D01*
X52450000Y-28885000D01*
X52592857Y-28956428D01*
X52735714Y-28956428D01*
X52878571Y-28242142D01*
X53307142Y-29527857D02*
X53378571Y-29670714D01*
X53378571Y-29956428D01*
X53307142Y-30099285D01*
X53164285Y-30170714D01*
X53092857Y-30170714D01*
X52950000Y-30099285D01*
X52878571Y-29956428D01*
X52878571Y-29742142D01*
X52807142Y-29599285D01*
X52664285Y-29527857D01*
X52592857Y-29527857D01*
X52450000Y-29599285D01*
X52378571Y-29742142D01*
X52378571Y-29956428D01*
X52450000Y-30099285D01*
X53307142Y-30742142D02*
X53378571Y-30885000D01*
X53378571Y-31170714D01*
X53307142Y-31313571D01*
X53164285Y-31385000D01*
X53092857Y-31385000D01*
X52950000Y-31313571D01*
X52878571Y-31170714D01*
X52878571Y-30956428D01*
X52807142Y-30813571D01*
X52664285Y-30742142D01*
X52592857Y-30742142D01*
X52450000Y-30813571D01*
X52378571Y-30956428D01*
X52378571Y-31170714D01*
X52450000Y-31313571D01*
X51878571Y-31813571D02*
X51878571Y-32670714D01*
X53378571Y-32242142D02*
X51878571Y-32242142D01*
X53378571Y-33385000D02*
X53307142Y-33242142D01*
X53235714Y-33170714D01*
X53092857Y-33099285D01*
X52664285Y-33099285D01*
X52521428Y-33170714D01*
X52450000Y-33242142D01*
X52378571Y-33385000D01*
X52378571Y-33599285D01*
X52450000Y-33742142D01*
X52521428Y-33813571D01*
X52664285Y-33885000D01*
X53092857Y-33885000D01*
X53235714Y-33813571D01*
X53307142Y-33742142D01*
X53378571Y-33599285D01*
X53378571Y-33385000D01*
X52378571Y-35170714D02*
X53378571Y-35170714D01*
X52378571Y-34527857D02*
X53164285Y-34527857D01*
X53307142Y-34599285D01*
X53378571Y-34742142D01*
X53378571Y-34956428D01*
X53307142Y-35099285D01*
X53235714Y-35170714D01*
X53307142Y-36527857D02*
X53378571Y-36385000D01*
X53378571Y-36099285D01*
X53307142Y-35956428D01*
X53235714Y-35885000D01*
X53092857Y-35813571D01*
X52664285Y-35813571D01*
X52521428Y-35885000D01*
X52450000Y-35956428D01*
X52378571Y-36099285D01*
X52378571Y-36385000D01*
X52450000Y-36527857D01*
X53378571Y-37170714D02*
X51878571Y-37170714D01*
X53378571Y-37813571D02*
X52592857Y-37813571D01*
X52450000Y-37742142D01*
X52378571Y-37599285D01*
X52378571Y-37385000D01*
X52450000Y-37242142D01*
X52521428Y-37170714D01*
X53378571Y-39242142D02*
X53378571Y-38527857D01*
X51878571Y-38527857D01*
X53378571Y-39742142D02*
X52378571Y-39742142D01*
X51878571Y-39742142D02*
X51950000Y-39670714D01*
X52021428Y-39742142D01*
X51950000Y-39813571D01*
X51878571Y-39742142D01*
X52021428Y-39742142D01*
X52378571Y-40242142D02*
X52378571Y-40813571D01*
X51878571Y-40456428D02*
X53164285Y-40456428D01*
X53307142Y-40527857D01*
X53378571Y-40670714D01*
X53378571Y-40813571D01*
X53307142Y-41885000D02*
X53378571Y-41742142D01*
X53378571Y-41456428D01*
X53307142Y-41313571D01*
X53164285Y-41242142D01*
X52592857Y-41242142D01*
X52450000Y-41313571D01*
X52378571Y-41456428D01*
X52378571Y-41742142D01*
X52450000Y-41885000D01*
X52592857Y-41956428D01*
X52735714Y-41956428D01*
X52878571Y-41242142D01*
X54428571Y-30099285D02*
X55928571Y-30599285D01*
X54428571Y-31099285D01*
X55928571Y-32385000D02*
X55928571Y-31527857D01*
X55928571Y-31956428D02*
X54428571Y-31956428D01*
X54642857Y-31813571D01*
X54785714Y-31670714D01*
X54857142Y-31527857D01*
X55785714Y-33027857D02*
X55857142Y-33099285D01*
X55928571Y-33027857D01*
X55857142Y-32956428D01*
X55785714Y-33027857D01*
X55928571Y-33027857D01*
X54428571Y-34027857D02*
X54428571Y-34170714D01*
X54500000Y-34313571D01*
X54571428Y-34384999D01*
X54714285Y-34456428D01*
X55000000Y-34527857D01*
X55357142Y-34527857D01*
X55642857Y-34456428D01*
X55785714Y-34384999D01*
X55857142Y-34313571D01*
X55928571Y-34170714D01*
X55928571Y-34027857D01*
X55857142Y-33884999D01*
X55785714Y-33813571D01*
X55642857Y-33742142D01*
X55357142Y-33670714D01*
X55000000Y-33670714D01*
X54714285Y-33742142D01*
X54571428Y-33813571D01*
X54500000Y-33884999D01*
X54428571Y-34027857D01*
D11*
X44705000Y-54695000D02*
X44705000Y-61595000D01*
X48005000Y-54695000D02*
X48005000Y-61595000D01*
X44705000Y-54695000D02*
X48005000Y-54695000D01*
X49525000Y-44170000D02*
X49525000Y-42710000D01*
X46365000Y-44170000D02*
X46365000Y-41010000D01*
X46365000Y-44170000D02*
X47295000Y-44170000D01*
X49525000Y-44170000D02*
X48595000Y-44170000D01*
X47870000Y-36240000D02*
X47870000Y-35040000D01*
X46110000Y-35040000D02*
X46110000Y-36240000D01*
X60570000Y-34335000D02*
X60570000Y-33135000D01*
X58810000Y-33135000D02*
X58810000Y-34335000D01*
D12*
X44307380Y-58356904D02*
X43307380Y-58356904D01*
X43307380Y-58595000D01*
X43355000Y-58737857D01*
X43450238Y-58833095D01*
X43545476Y-58880714D01*
X43735952Y-58928333D01*
X43878809Y-58928333D01*
X44069285Y-58880714D01*
X44164523Y-58833095D01*
X44259761Y-58737857D01*
X44307380Y-58595000D01*
X44307380Y-58356904D01*
X44307380Y-59880714D02*
X44307380Y-59309285D01*
X44307380Y-59595000D02*
X43307380Y-59595000D01*
X43450238Y-59499761D01*
X43545476Y-59404523D01*
X43593095Y-59309285D01*
X49407380Y-56952142D02*
X49407380Y-56380714D01*
X49407380Y-56666428D02*
X48407380Y-56666428D01*
X48550238Y-56571190D01*
X48645476Y-56475952D01*
X48693095Y-56380714D01*
X49407380Y-57380714D02*
X48407380Y-57380714D01*
X49407380Y-57952142D01*
X48407380Y-57952142D01*
X48740714Y-58856904D02*
X49407380Y-58856904D01*
X48359761Y-58618809D02*
X49074047Y-58380714D01*
X49074047Y-58999761D01*
X48407380Y-59571190D02*
X48407380Y-59666428D01*
X48455000Y-59761666D01*
X48502619Y-59809285D01*
X48597857Y-59856904D01*
X48788333Y-59904523D01*
X49026428Y-59904523D01*
X49216904Y-59856904D01*
X49312142Y-59809285D01*
X49359761Y-59761666D01*
X49407380Y-59666428D01*
X49407380Y-59571190D01*
X49359761Y-59475952D01*
X49312142Y-59428333D01*
X49216904Y-59380714D01*
X49026428Y-59333095D01*
X48788333Y-59333095D01*
X48597857Y-59380714D01*
X48502619Y-59428333D01*
X48455000Y-59475952D01*
X48407380Y-59571190D01*
X48407380Y-60523571D02*
X48407380Y-60618809D01*
X48455000Y-60714047D01*
X48502619Y-60761666D01*
X48597857Y-60809285D01*
X48788333Y-60856904D01*
X49026428Y-60856904D01*
X49216904Y-60809285D01*
X49312142Y-60761666D01*
X49359761Y-60714047D01*
X49407380Y-60618809D01*
X49407380Y-60523571D01*
X49359761Y-60428333D01*
X49312142Y-60380714D01*
X49216904Y-60333095D01*
X49026428Y-60285476D01*
X48788333Y-60285476D01*
X48597857Y-60333095D01*
X48502619Y-60380714D01*
X48455000Y-60428333D01*
X48407380Y-60523571D01*
X48407380Y-61190238D02*
X48407380Y-61856904D01*
X49407380Y-61428333D01*
X45992619Y-43314761D02*
X45945000Y-43219523D01*
X45849761Y-43124285D01*
X45706904Y-42981428D01*
X45659285Y-42886190D01*
X45659285Y-42790952D01*
X45897380Y-42838571D02*
X45849761Y-42743333D01*
X45754523Y-42648095D01*
X45564047Y-42600476D01*
X45230714Y-42600476D01*
X45040238Y-42648095D01*
X44945000Y-42743333D01*
X44897380Y-42838571D01*
X44897380Y-43029047D01*
X44945000Y-43124285D01*
X45040238Y-43219523D01*
X45230714Y-43267142D01*
X45564047Y-43267142D01*
X45754523Y-43219523D01*
X45849761Y-43124285D01*
X45897380Y-43029047D01*
X45897380Y-42838571D01*
X45897380Y-44219523D02*
X45897380Y-43648095D01*
X45897380Y-43933809D02*
X44897380Y-43933809D01*
X45040238Y-43838571D01*
X45135476Y-43743333D01*
X45183095Y-43648095D01*
X49992619Y-40695714D02*
X49945000Y-40743333D01*
X49897380Y-40838571D01*
X49897380Y-41076666D01*
X49945000Y-41171904D01*
X49992619Y-41219523D01*
X50087857Y-41267142D01*
X50183095Y-41267142D01*
X50325952Y-41219523D01*
X50897380Y-40648095D01*
X50897380Y-41267142D01*
X50897380Y-41695714D02*
X49897380Y-41695714D01*
X50897380Y-42267142D01*
X49897380Y-42267142D01*
X49992619Y-42695714D02*
X49945000Y-42743333D01*
X49897380Y-42838571D01*
X49897380Y-43076666D01*
X49945000Y-43171904D01*
X49992619Y-43219523D01*
X50087857Y-43267142D01*
X50183095Y-43267142D01*
X50325952Y-43219523D01*
X50897380Y-42648095D01*
X50897380Y-43267142D01*
X49992619Y-43648095D02*
X49945000Y-43695714D01*
X49897380Y-43790952D01*
X49897380Y-44029047D01*
X49945000Y-44124285D01*
X49992619Y-44171904D01*
X50087857Y-44219523D01*
X50183095Y-44219523D01*
X50325952Y-44171904D01*
X50897380Y-43600476D01*
X50897380Y-44219523D01*
X49992619Y-44600476D02*
X49945000Y-44648095D01*
X49897380Y-44743333D01*
X49897380Y-44981428D01*
X49945000Y-45076666D01*
X49992619Y-45124285D01*
X50087857Y-45171904D01*
X50183095Y-45171904D01*
X50325952Y-45124285D01*
X50897380Y-44552857D01*
X50897380Y-45171904D01*
X49992619Y-45552857D02*
X49945000Y-45600476D01*
X49897380Y-45695714D01*
X49897380Y-45933809D01*
X49945000Y-46029047D01*
X49992619Y-46076666D01*
X50087857Y-46124285D01*
X50183095Y-46124285D01*
X50325952Y-46076666D01*
X50897380Y-45505238D01*
X50897380Y-46124285D01*
X49142380Y-35473333D02*
X48666190Y-35140000D01*
X49142380Y-34901904D02*
X48142380Y-34901904D01*
X48142380Y-35282857D01*
X48190000Y-35378095D01*
X48237619Y-35425714D01*
X48332857Y-35473333D01*
X48475714Y-35473333D01*
X48570952Y-35425714D01*
X48618571Y-35378095D01*
X48666190Y-35282857D01*
X48666190Y-34901904D01*
X49142380Y-36425714D02*
X49142380Y-35854285D01*
X49142380Y-36140000D02*
X48142380Y-36140000D01*
X48285238Y-36044761D01*
X48380476Y-35949523D01*
X48428095Y-35854285D01*
X44787619Y-34140000D02*
X44740000Y-34187619D01*
X44692380Y-34282857D01*
X44692380Y-34520952D01*
X44740000Y-34616190D01*
X44787619Y-34663809D01*
X44882857Y-34711428D01*
X44978095Y-34711428D01*
X45120952Y-34663809D01*
X45692380Y-34092380D01*
X45692380Y-34711428D01*
X45597142Y-35140000D02*
X45644761Y-35187619D01*
X45692380Y-35140000D01*
X45644761Y-35092380D01*
X45597142Y-35140000D01*
X45692380Y-35140000D01*
X44787619Y-35568571D02*
X44740000Y-35616190D01*
X44692380Y-35711428D01*
X44692380Y-35949523D01*
X44740000Y-36044761D01*
X44787619Y-36092380D01*
X44882857Y-36140000D01*
X44978095Y-36140000D01*
X45120952Y-36092380D01*
X45692380Y-35520952D01*
X45692380Y-36140000D01*
X45692380Y-36568571D02*
X44692380Y-36568571D01*
X45692380Y-37140000D02*
X45120952Y-36711428D01*
X44692380Y-37140000D02*
X45263809Y-36568571D01*
X58442380Y-33568333D02*
X57966190Y-33235000D01*
X58442380Y-32996904D02*
X57442380Y-32996904D01*
X57442380Y-33377857D01*
X57490000Y-33473095D01*
X57537619Y-33520714D01*
X57632857Y-33568333D01*
X57775714Y-33568333D01*
X57870952Y-33520714D01*
X57918571Y-33473095D01*
X57966190Y-33377857D01*
X57966190Y-32996904D01*
X57537619Y-33949285D02*
X57490000Y-33996904D01*
X57442380Y-34092142D01*
X57442380Y-34330238D01*
X57490000Y-34425476D01*
X57537619Y-34473095D01*
X57632857Y-34520714D01*
X57728095Y-34520714D01*
X57870952Y-34473095D01*
X58442380Y-33901666D01*
X58442380Y-34520714D01*
X61892380Y-32568333D02*
X61892380Y-31996904D01*
X61892380Y-32282619D02*
X60892380Y-32282619D01*
X61035238Y-32187380D01*
X61130476Y-32092142D01*
X61178095Y-31996904D01*
X60987619Y-32949285D02*
X60940000Y-32996904D01*
X60892380Y-33092142D01*
X60892380Y-33330238D01*
X60940000Y-33425476D01*
X60987619Y-33473095D01*
X61082857Y-33520714D01*
X61178095Y-33520714D01*
X61320952Y-33473095D01*
X61892380Y-32901666D01*
X61892380Y-33520714D01*
X60892380Y-34139761D02*
X60892380Y-34235000D01*
X60940000Y-34330238D01*
X60987619Y-34377857D01*
X61082857Y-34425476D01*
X61273333Y-34473095D01*
X61511428Y-34473095D01*
X61701904Y-34425476D01*
X61797142Y-34377857D01*
X61844761Y-34330238D01*
X61892380Y-34235000D01*
X61892380Y-34139761D01*
X61844761Y-34044523D01*
X61797142Y-33996904D01*
X61701904Y-33949285D01*
X61511428Y-33901666D01*
X61273333Y-33901666D01*
X61082857Y-33949285D01*
X60987619Y-33996904D01*
X60940000Y-34044523D01*
X60892380Y-34139761D01*
X61892380Y-34901666D02*
X60892380Y-34901666D01*
X61892380Y-35473095D02*
X61320952Y-35044523D01*
X60892380Y-35473095D02*
X61463809Y-34901666D01*
X52831904Y-17867380D02*
X52831904Y-18676904D01*
X52784285Y-18772142D01*
X52736666Y-18819761D01*
X52641428Y-18867380D01*
X52450952Y-18867380D01*
X52355714Y-18819761D01*
X52308095Y-18772142D01*
X52260476Y-18676904D01*
X52260476Y-17867380D01*
X51260476Y-18867380D02*
X51831904Y-18867380D01*
X51546190Y-18867380D02*
X51546190Y-17867380D01*
X51641428Y-18010238D01*
X51736666Y-18105476D01*
X51831904Y-18153095D01*
M02*
