G04 #@! TF.GenerationSoftware,KiCad,Pcbnew,(5.1.4)-1*
G04 #@! TF.CreationDate,2019-10-10T22:11:15+02:00*
G04 #@! TF.ProjectId,WirelessTouchLight,57697265-6c65-4737-9354-6f7563684c69,rev?*
G04 #@! TF.SameCoordinates,Original*
G04 #@! TF.FileFunction,Soldermask,Bot*
G04 #@! TF.FilePolarity,Negative*
%FSLAX46Y46*%
G04 Gerber Fmt 4.6, Leading zero omitted, Abs format (unit mm)*
G04 Created by KiCad (PCBNEW (5.1.4)-1) date 2019-10-10 22:11:15*
%MOMM*%
%LPD*%
G04 APERTURE LIST*
%ADD10C,0.100000*%
G04 APERTURE END LIST*
D10*
G36*
X50284487Y-73423996D02*
G01*
X50521253Y-73522068D01*
X50521255Y-73522069D01*
X50734339Y-73664447D01*
X50915553Y-73845661D01*
X51057932Y-74058747D01*
X51156004Y-74295513D01*
X51206000Y-74546861D01*
X51206000Y-74803139D01*
X51156004Y-75054487D01*
X51057932Y-75291253D01*
X51057931Y-75291255D01*
X50915553Y-75504339D01*
X50734339Y-75685553D01*
X50521255Y-75827931D01*
X50521254Y-75827932D01*
X50521253Y-75827932D01*
X50284487Y-75926004D01*
X50033139Y-75976000D01*
X49776861Y-75976000D01*
X49525513Y-75926004D01*
X49288747Y-75827932D01*
X49288746Y-75827932D01*
X49288745Y-75827931D01*
X49075661Y-75685553D01*
X48894447Y-75504339D01*
X48752069Y-75291255D01*
X48752068Y-75291253D01*
X48653996Y-75054487D01*
X48604000Y-74803139D01*
X48604000Y-74546861D01*
X48653996Y-74295513D01*
X48752068Y-74058747D01*
X48894447Y-73845661D01*
X49075661Y-73664447D01*
X49288745Y-73522069D01*
X49288747Y-73522068D01*
X49525513Y-73423996D01*
X49776861Y-73374000D01*
X50033139Y-73374000D01*
X50284487Y-73423996D01*
X50284487Y-73423996D01*
G37*
G36*
X55284487Y-73423996D02*
G01*
X55521253Y-73522068D01*
X55521255Y-73522069D01*
X55734339Y-73664447D01*
X55915553Y-73845661D01*
X56057932Y-74058747D01*
X56156004Y-74295513D01*
X56206000Y-74546861D01*
X56206000Y-74803139D01*
X56156004Y-75054487D01*
X56057932Y-75291253D01*
X56057931Y-75291255D01*
X55915553Y-75504339D01*
X55734339Y-75685553D01*
X55521255Y-75827931D01*
X55521254Y-75827932D01*
X55521253Y-75827932D01*
X55284487Y-75926004D01*
X55033139Y-75976000D01*
X54776861Y-75976000D01*
X54525513Y-75926004D01*
X54288747Y-75827932D01*
X54288746Y-75827932D01*
X54288745Y-75827931D01*
X54075661Y-75685553D01*
X53894447Y-75504339D01*
X53752069Y-75291255D01*
X53752068Y-75291253D01*
X53653996Y-75054487D01*
X53604000Y-74803139D01*
X53604000Y-74546861D01*
X53653996Y-74295513D01*
X53752068Y-74058747D01*
X53894447Y-73845661D01*
X54075661Y-73664447D01*
X54288745Y-73522069D01*
X54288747Y-73522068D01*
X54525513Y-73423996D01*
X54776861Y-73374000D01*
X55033139Y-73374000D01*
X55284487Y-73423996D01*
X55284487Y-73423996D01*
G37*
G36*
X60284487Y-73423996D02*
G01*
X60521253Y-73522068D01*
X60521255Y-73522069D01*
X60734339Y-73664447D01*
X60915553Y-73845661D01*
X61057932Y-74058747D01*
X61156004Y-74295513D01*
X61206000Y-74546861D01*
X61206000Y-74803139D01*
X61156004Y-75054487D01*
X61057932Y-75291253D01*
X61057931Y-75291255D01*
X60915553Y-75504339D01*
X60734339Y-75685553D01*
X60521255Y-75827931D01*
X60521254Y-75827932D01*
X60521253Y-75827932D01*
X60284487Y-75926004D01*
X60033139Y-75976000D01*
X59776861Y-75976000D01*
X59525513Y-75926004D01*
X59288747Y-75827932D01*
X59288746Y-75827932D01*
X59288745Y-75827931D01*
X59075661Y-75685553D01*
X58894447Y-75504339D01*
X58752069Y-75291255D01*
X58752068Y-75291253D01*
X58653996Y-75054487D01*
X58604000Y-74803139D01*
X58604000Y-74546861D01*
X58653996Y-74295513D01*
X58752068Y-74058747D01*
X58894447Y-73845661D01*
X59075661Y-73664447D01*
X59288745Y-73522069D01*
X59288747Y-73522068D01*
X59525513Y-73423996D01*
X59776861Y-73374000D01*
X60033139Y-73374000D01*
X60284487Y-73423996D01*
X60284487Y-73423996D01*
G37*
G36*
X45284487Y-73423996D02*
G01*
X45521253Y-73522068D01*
X45521255Y-73522069D01*
X45734339Y-73664447D01*
X45915553Y-73845661D01*
X46057932Y-74058747D01*
X46156004Y-74295513D01*
X46206000Y-74546861D01*
X46206000Y-74803139D01*
X46156004Y-75054487D01*
X46057932Y-75291253D01*
X46057931Y-75291255D01*
X45915553Y-75504339D01*
X45734339Y-75685553D01*
X45521255Y-75827931D01*
X45521254Y-75827932D01*
X45521253Y-75827932D01*
X45284487Y-75926004D01*
X45033139Y-75976000D01*
X44776861Y-75976000D01*
X44525513Y-75926004D01*
X44288747Y-75827932D01*
X44288746Y-75827932D01*
X44288745Y-75827931D01*
X44075661Y-75685553D01*
X43894447Y-75504339D01*
X43752069Y-75291255D01*
X43752068Y-75291253D01*
X43653996Y-75054487D01*
X43604000Y-74803139D01*
X43604000Y-74546861D01*
X43653996Y-74295513D01*
X43752068Y-74058747D01*
X43894447Y-73845661D01*
X44075661Y-73664447D01*
X44288745Y-73522069D01*
X44288747Y-73522068D01*
X44525513Y-73423996D01*
X44776861Y-73374000D01*
X45033139Y-73374000D01*
X45284487Y-73423996D01*
X45284487Y-73423996D01*
G37*
G36*
X45284487Y-68423996D02*
G01*
X45521253Y-68522068D01*
X45521255Y-68522069D01*
X45734339Y-68664447D01*
X45915553Y-68845661D01*
X46057932Y-69058747D01*
X46156004Y-69295513D01*
X46206000Y-69546861D01*
X46206000Y-69803139D01*
X46156004Y-70054487D01*
X46057932Y-70291253D01*
X46057931Y-70291255D01*
X45915553Y-70504339D01*
X45734339Y-70685553D01*
X45521255Y-70827931D01*
X45521254Y-70827932D01*
X45521253Y-70827932D01*
X45284487Y-70926004D01*
X45033139Y-70976000D01*
X44776861Y-70976000D01*
X44525513Y-70926004D01*
X44288747Y-70827932D01*
X44288746Y-70827932D01*
X44288745Y-70827931D01*
X44075661Y-70685553D01*
X43894447Y-70504339D01*
X43752069Y-70291255D01*
X43752068Y-70291253D01*
X43653996Y-70054487D01*
X43604000Y-69803139D01*
X43604000Y-69546861D01*
X43653996Y-69295513D01*
X43752068Y-69058747D01*
X43894447Y-68845661D01*
X44075661Y-68664447D01*
X44288745Y-68522069D01*
X44288747Y-68522068D01*
X44525513Y-68423996D01*
X44776861Y-68374000D01*
X45033139Y-68374000D01*
X45284487Y-68423996D01*
X45284487Y-68423996D01*
G37*
G36*
X50284487Y-68423996D02*
G01*
X50521253Y-68522068D01*
X50521255Y-68522069D01*
X50734339Y-68664447D01*
X50915553Y-68845661D01*
X51057932Y-69058747D01*
X51156004Y-69295513D01*
X51206000Y-69546861D01*
X51206000Y-69803139D01*
X51156004Y-70054487D01*
X51057932Y-70291253D01*
X51057931Y-70291255D01*
X50915553Y-70504339D01*
X50734339Y-70685553D01*
X50521255Y-70827931D01*
X50521254Y-70827932D01*
X50521253Y-70827932D01*
X50284487Y-70926004D01*
X50033139Y-70976000D01*
X49776861Y-70976000D01*
X49525513Y-70926004D01*
X49288747Y-70827932D01*
X49288746Y-70827932D01*
X49288745Y-70827931D01*
X49075661Y-70685553D01*
X48894447Y-70504339D01*
X48752069Y-70291255D01*
X48752068Y-70291253D01*
X48653996Y-70054487D01*
X48604000Y-69803139D01*
X48604000Y-69546861D01*
X48653996Y-69295513D01*
X48752068Y-69058747D01*
X48894447Y-68845661D01*
X49075661Y-68664447D01*
X49288745Y-68522069D01*
X49288747Y-68522068D01*
X49525513Y-68423996D01*
X49776861Y-68374000D01*
X50033139Y-68374000D01*
X50284487Y-68423996D01*
X50284487Y-68423996D01*
G37*
G36*
X55284487Y-68423996D02*
G01*
X55521253Y-68522068D01*
X55521255Y-68522069D01*
X55734339Y-68664447D01*
X55915553Y-68845661D01*
X56057932Y-69058747D01*
X56156004Y-69295513D01*
X56206000Y-69546861D01*
X56206000Y-69803139D01*
X56156004Y-70054487D01*
X56057932Y-70291253D01*
X56057931Y-70291255D01*
X55915553Y-70504339D01*
X55734339Y-70685553D01*
X55521255Y-70827931D01*
X55521254Y-70827932D01*
X55521253Y-70827932D01*
X55284487Y-70926004D01*
X55033139Y-70976000D01*
X54776861Y-70976000D01*
X54525513Y-70926004D01*
X54288747Y-70827932D01*
X54288746Y-70827932D01*
X54288745Y-70827931D01*
X54075661Y-70685553D01*
X53894447Y-70504339D01*
X53752069Y-70291255D01*
X53752068Y-70291253D01*
X53653996Y-70054487D01*
X53604000Y-69803139D01*
X53604000Y-69546861D01*
X53653996Y-69295513D01*
X53752068Y-69058747D01*
X53894447Y-68845661D01*
X54075661Y-68664447D01*
X54288745Y-68522069D01*
X54288747Y-68522068D01*
X54525513Y-68423996D01*
X54776861Y-68374000D01*
X55033139Y-68374000D01*
X55284487Y-68423996D01*
X55284487Y-68423996D01*
G37*
G36*
X60284487Y-68423996D02*
G01*
X60521253Y-68522068D01*
X60521255Y-68522069D01*
X60734339Y-68664447D01*
X60915553Y-68845661D01*
X61057932Y-69058747D01*
X61156004Y-69295513D01*
X61206000Y-69546861D01*
X61206000Y-69803139D01*
X61156004Y-70054487D01*
X61057932Y-70291253D01*
X61057931Y-70291255D01*
X60915553Y-70504339D01*
X60734339Y-70685553D01*
X60521255Y-70827931D01*
X60521254Y-70827932D01*
X60521253Y-70827932D01*
X60284487Y-70926004D01*
X60033139Y-70976000D01*
X59776861Y-70976000D01*
X59525513Y-70926004D01*
X59288747Y-70827932D01*
X59288746Y-70827932D01*
X59288745Y-70827931D01*
X59075661Y-70685553D01*
X58894447Y-70504339D01*
X58752069Y-70291255D01*
X58752068Y-70291253D01*
X58653996Y-70054487D01*
X58604000Y-69803139D01*
X58604000Y-69546861D01*
X58653996Y-69295513D01*
X58752068Y-69058747D01*
X58894447Y-68845661D01*
X59075661Y-68664447D01*
X59288745Y-68522069D01*
X59288747Y-68522068D01*
X59525513Y-68423996D01*
X59776861Y-68374000D01*
X60033139Y-68374000D01*
X60284487Y-68423996D01*
X60284487Y-68423996D01*
G37*
G36*
X54281564Y-61854389D02*
G01*
X54435369Y-61918097D01*
X54472835Y-61933616D01*
X54644973Y-62048635D01*
X54791365Y-62195027D01*
X54905606Y-62366000D01*
X54906385Y-62367167D01*
X54985611Y-62558436D01*
X55026000Y-62761484D01*
X55026000Y-62968516D01*
X54985611Y-63171564D01*
X54906385Y-63362833D01*
X54906384Y-63362835D01*
X54791365Y-63534973D01*
X54644973Y-63681365D01*
X54472835Y-63796384D01*
X54472834Y-63796385D01*
X54472833Y-63796385D01*
X54281564Y-63875611D01*
X54078516Y-63916000D01*
X53871484Y-63916000D01*
X53668436Y-63875611D01*
X53477167Y-63796385D01*
X53477166Y-63796385D01*
X53477165Y-63796384D01*
X53305027Y-63681365D01*
X53158635Y-63534973D01*
X53043616Y-63362835D01*
X53043615Y-63362833D01*
X52964389Y-63171564D01*
X52924000Y-62968516D01*
X52924000Y-62761484D01*
X52964389Y-62558436D01*
X53043615Y-62367167D01*
X53044395Y-62366000D01*
X53158635Y-62195027D01*
X53305027Y-62048635D01*
X53477165Y-61933616D01*
X53514631Y-61918097D01*
X53668436Y-61854389D01*
X53871484Y-61814000D01*
X54078516Y-61814000D01*
X54281564Y-61854389D01*
X54281564Y-61854389D01*
G37*
G36*
X51741564Y-61854389D02*
G01*
X51895369Y-61918097D01*
X51932835Y-61933616D01*
X52104973Y-62048635D01*
X52251365Y-62195027D01*
X52365606Y-62366000D01*
X52366385Y-62367167D01*
X52445611Y-62558436D01*
X52486000Y-62761484D01*
X52486000Y-62968516D01*
X52445611Y-63171564D01*
X52366385Y-63362833D01*
X52366384Y-63362835D01*
X52251365Y-63534973D01*
X52104973Y-63681365D01*
X51932835Y-63796384D01*
X51932834Y-63796385D01*
X51932833Y-63796385D01*
X51741564Y-63875611D01*
X51538516Y-63916000D01*
X51331484Y-63916000D01*
X51128436Y-63875611D01*
X50937167Y-63796385D01*
X50937166Y-63796385D01*
X50937165Y-63796384D01*
X50765027Y-63681365D01*
X50618635Y-63534973D01*
X50503616Y-63362835D01*
X50503615Y-63362833D01*
X50424389Y-63171564D01*
X50384000Y-62968516D01*
X50384000Y-62761484D01*
X50424389Y-62558436D01*
X50503615Y-62367167D01*
X50504395Y-62366000D01*
X50618635Y-62195027D01*
X50765027Y-62048635D01*
X50937165Y-61933616D01*
X50974631Y-61918097D01*
X51128436Y-61854389D01*
X51331484Y-61814000D01*
X51538516Y-61814000D01*
X51741564Y-61854389D01*
X51741564Y-61854389D01*
G37*
G36*
X41581564Y-61854389D02*
G01*
X41735369Y-61918097D01*
X41772835Y-61933616D01*
X41944973Y-62048635D01*
X42091365Y-62195027D01*
X42205606Y-62366000D01*
X42206385Y-62367167D01*
X42285611Y-62558436D01*
X42326000Y-62761484D01*
X42326000Y-62968516D01*
X42285611Y-63171564D01*
X42206385Y-63362833D01*
X42206384Y-63362835D01*
X42091365Y-63534973D01*
X41944973Y-63681365D01*
X41772835Y-63796384D01*
X41772834Y-63796385D01*
X41772833Y-63796385D01*
X41581564Y-63875611D01*
X41378516Y-63916000D01*
X41171484Y-63916000D01*
X40968436Y-63875611D01*
X40777167Y-63796385D01*
X40777166Y-63796385D01*
X40777165Y-63796384D01*
X40605027Y-63681365D01*
X40458635Y-63534973D01*
X40343616Y-63362835D01*
X40343615Y-63362833D01*
X40264389Y-63171564D01*
X40224000Y-62968516D01*
X40224000Y-62761484D01*
X40264389Y-62558436D01*
X40343615Y-62367167D01*
X40344395Y-62366000D01*
X40458635Y-62195027D01*
X40605027Y-62048635D01*
X40777165Y-61933616D01*
X40814631Y-61918097D01*
X40968436Y-61854389D01*
X41171484Y-61814000D01*
X41378516Y-61814000D01*
X41581564Y-61854389D01*
X41581564Y-61854389D01*
G37*
G36*
X47306000Y-63396000D02*
G01*
X45404000Y-63396000D01*
X45404000Y-59794000D01*
X47306000Y-59794000D01*
X47306000Y-63396000D01*
X47306000Y-63396000D01*
G37*
G36*
X59086000Y-63150000D02*
G01*
X56484000Y-63150000D01*
X56484000Y-60548000D01*
X59086000Y-60548000D01*
X59086000Y-63150000D01*
X59086000Y-63150000D01*
G37*
G36*
X62478228Y-60696703D02*
G01*
X62633100Y-60760853D01*
X62772481Y-60853985D01*
X62891015Y-60972519D01*
X62984147Y-61111900D01*
X63048297Y-61266772D01*
X63081000Y-61431184D01*
X63081000Y-61598816D01*
X63048297Y-61763228D01*
X62984147Y-61918100D01*
X62891015Y-62057481D01*
X62772481Y-62176015D01*
X62633100Y-62269147D01*
X62478228Y-62333297D01*
X62313816Y-62366000D01*
X62146184Y-62366000D01*
X61981772Y-62333297D01*
X61826900Y-62269147D01*
X61687519Y-62176015D01*
X61568985Y-62057481D01*
X61475853Y-61918100D01*
X61411703Y-61763228D01*
X61379000Y-61598816D01*
X61379000Y-61431184D01*
X61411703Y-61266772D01*
X61475853Y-61111900D01*
X61568985Y-60972519D01*
X61687519Y-60853985D01*
X61826900Y-60760853D01*
X61981772Y-60696703D01*
X62146184Y-60664000D01*
X62313816Y-60664000D01*
X62478228Y-60696703D01*
X62478228Y-60696703D01*
G37*
G36*
X47306000Y-58396000D02*
G01*
X45404000Y-58396000D01*
X45404000Y-54794000D01*
X47306000Y-54794000D01*
X47306000Y-58396000D01*
X47306000Y-58396000D01*
G37*
G36*
X57944472Y-55223412D02*
G01*
X58040040Y-55232825D01*
X58285280Y-55307218D01*
X58511294Y-55428025D01*
X58562899Y-55470376D01*
X58709397Y-55590603D01*
X58829624Y-55737101D01*
X58871975Y-55788706D01*
X58992782Y-56014720D01*
X59067175Y-56259960D01*
X59092294Y-56515000D01*
X59067175Y-56770040D01*
X58992782Y-57015280D01*
X58871975Y-57241294D01*
X58829624Y-57292899D01*
X58709397Y-57439397D01*
X58562899Y-57559624D01*
X58511294Y-57601975D01*
X58285280Y-57722782D01*
X58040040Y-57797175D01*
X57944472Y-57806588D01*
X57848906Y-57816000D01*
X57721094Y-57816000D01*
X57625528Y-57806588D01*
X57529960Y-57797175D01*
X57284720Y-57722782D01*
X57058706Y-57601975D01*
X57007101Y-57559624D01*
X56860603Y-57439397D01*
X56740376Y-57292899D01*
X56698025Y-57241294D01*
X56577218Y-57015280D01*
X56502825Y-56770040D01*
X56477706Y-56515000D01*
X56502825Y-56259960D01*
X56577218Y-56014720D01*
X56698025Y-55788706D01*
X56740376Y-55737101D01*
X56860603Y-55590603D01*
X57007101Y-55470376D01*
X57058706Y-55428025D01*
X57284720Y-55307218D01*
X57529960Y-55232825D01*
X57625528Y-55223412D01*
X57721094Y-55214000D01*
X57848906Y-55214000D01*
X57944472Y-55223412D01*
X57944472Y-55223412D01*
G37*
G36*
X63081000Y-57366000D02*
G01*
X61379000Y-57366000D01*
X61379000Y-55664000D01*
X63081000Y-55664000D01*
X63081000Y-57366000D01*
X63081000Y-57366000D01*
G37*
G36*
X51741564Y-54234389D02*
G01*
X51932833Y-54313615D01*
X51932835Y-54313616D01*
X52104973Y-54428635D01*
X52251365Y-54575027D01*
X52366385Y-54747167D01*
X52445611Y-54938436D01*
X52486000Y-55141484D01*
X52486000Y-55348516D01*
X52445611Y-55551564D01*
X52366385Y-55742833D01*
X52366384Y-55742835D01*
X52251365Y-55914973D01*
X52104973Y-56061365D01*
X51932835Y-56176384D01*
X51932834Y-56176385D01*
X51932833Y-56176385D01*
X51741564Y-56255611D01*
X51538516Y-56296000D01*
X51331484Y-56296000D01*
X51128436Y-56255611D01*
X50937167Y-56176385D01*
X50937166Y-56176385D01*
X50937165Y-56176384D01*
X50765027Y-56061365D01*
X50618635Y-55914973D01*
X50503616Y-55742835D01*
X50503615Y-55742833D01*
X50424389Y-55551564D01*
X50384000Y-55348516D01*
X50384000Y-55141484D01*
X50424389Y-54938436D01*
X50503615Y-54747167D01*
X50618635Y-54575027D01*
X50765027Y-54428635D01*
X50937165Y-54313616D01*
X50937167Y-54313615D01*
X51128436Y-54234389D01*
X51331484Y-54194000D01*
X51538516Y-54194000D01*
X51741564Y-54234389D01*
X51741564Y-54234389D01*
G37*
G36*
X41581564Y-54234389D02*
G01*
X41772833Y-54313615D01*
X41772835Y-54313616D01*
X41944973Y-54428635D01*
X42091365Y-54575027D01*
X42206385Y-54747167D01*
X42285611Y-54938436D01*
X42326000Y-55141484D01*
X42326000Y-55348516D01*
X42285611Y-55551564D01*
X42206385Y-55742833D01*
X42206384Y-55742835D01*
X42091365Y-55914973D01*
X41944973Y-56061365D01*
X41772835Y-56176384D01*
X41772834Y-56176385D01*
X41772833Y-56176385D01*
X41581564Y-56255611D01*
X41378516Y-56296000D01*
X41171484Y-56296000D01*
X40968436Y-56255611D01*
X40777167Y-56176385D01*
X40777166Y-56176385D01*
X40777165Y-56176384D01*
X40605027Y-56061365D01*
X40458635Y-55914973D01*
X40343616Y-55742835D01*
X40343615Y-55742833D01*
X40264389Y-55551564D01*
X40224000Y-55348516D01*
X40224000Y-55141484D01*
X40264389Y-54938436D01*
X40343615Y-54747167D01*
X40458635Y-54575027D01*
X40605027Y-54428635D01*
X40777165Y-54313616D01*
X40777167Y-54313615D01*
X40968436Y-54234389D01*
X41171484Y-54194000D01*
X41378516Y-54194000D01*
X41581564Y-54234389D01*
X41581564Y-54234389D01*
G37*
G36*
X54281564Y-54234389D02*
G01*
X54472833Y-54313615D01*
X54472835Y-54313616D01*
X54644973Y-54428635D01*
X54791365Y-54575027D01*
X54906385Y-54747167D01*
X54985611Y-54938436D01*
X55026000Y-55141484D01*
X55026000Y-55348516D01*
X54985611Y-55551564D01*
X54906385Y-55742833D01*
X54906384Y-55742835D01*
X54791365Y-55914973D01*
X54644973Y-56061365D01*
X54472835Y-56176384D01*
X54472834Y-56176385D01*
X54472833Y-56176385D01*
X54281564Y-56255611D01*
X54078516Y-56296000D01*
X53871484Y-56296000D01*
X53668436Y-56255611D01*
X53477167Y-56176385D01*
X53477166Y-56176385D01*
X53477165Y-56176384D01*
X53305027Y-56061365D01*
X53158635Y-55914973D01*
X53043616Y-55742835D01*
X53043615Y-55742833D01*
X52964389Y-55551564D01*
X52924000Y-55348516D01*
X52924000Y-55141484D01*
X52964389Y-54938436D01*
X53043615Y-54747167D01*
X53158635Y-54575027D01*
X53305027Y-54428635D01*
X53477165Y-54313616D01*
X53477167Y-54313615D01*
X53668436Y-54234389D01*
X53871484Y-54194000D01*
X54078516Y-54194000D01*
X54281564Y-54234389D01*
X54281564Y-54234389D01*
G37*
G36*
X55029487Y-48468996D02*
G01*
X55266253Y-48567068D01*
X55266255Y-48567069D01*
X55479339Y-48709447D01*
X55660553Y-48890661D01*
X55802932Y-49103747D01*
X55901004Y-49340513D01*
X55951000Y-49591861D01*
X55951000Y-49848139D01*
X55901004Y-50099487D01*
X55802932Y-50336253D01*
X55802931Y-50336255D01*
X55660553Y-50549339D01*
X55479339Y-50730553D01*
X55266255Y-50872931D01*
X55266254Y-50872932D01*
X55266253Y-50872932D01*
X55029487Y-50971004D01*
X54778139Y-51021000D01*
X54521861Y-51021000D01*
X54270513Y-50971004D01*
X54033747Y-50872932D01*
X54033746Y-50872932D01*
X54033745Y-50872931D01*
X53820661Y-50730553D01*
X53639447Y-50549339D01*
X53497069Y-50336255D01*
X53497068Y-50336253D01*
X53398996Y-50099487D01*
X53349000Y-49848139D01*
X53349000Y-49591861D01*
X53398996Y-49340513D01*
X53497068Y-49103747D01*
X53639447Y-48890661D01*
X53820661Y-48709447D01*
X54033745Y-48567069D01*
X54033747Y-48567068D01*
X54270513Y-48468996D01*
X54521861Y-48419000D01*
X54778139Y-48419000D01*
X55029487Y-48468996D01*
X55029487Y-48468996D01*
G37*
G36*
X50029487Y-48468996D02*
G01*
X50266253Y-48567068D01*
X50266255Y-48567069D01*
X50479339Y-48709447D01*
X50660553Y-48890661D01*
X50802932Y-49103747D01*
X50901004Y-49340513D01*
X50951000Y-49591861D01*
X50951000Y-49848139D01*
X50901004Y-50099487D01*
X50802932Y-50336253D01*
X50802931Y-50336255D01*
X50660553Y-50549339D01*
X50479339Y-50730553D01*
X50266255Y-50872931D01*
X50266254Y-50872932D01*
X50266253Y-50872932D01*
X50029487Y-50971004D01*
X49778139Y-51021000D01*
X49521861Y-51021000D01*
X49270513Y-50971004D01*
X49033747Y-50872932D01*
X49033746Y-50872932D01*
X49033745Y-50872931D01*
X48820661Y-50730553D01*
X48639447Y-50549339D01*
X48497069Y-50336255D01*
X48497068Y-50336253D01*
X48398996Y-50099487D01*
X48349000Y-49848139D01*
X48349000Y-49591861D01*
X48398996Y-49340513D01*
X48497068Y-49103747D01*
X48639447Y-48890661D01*
X48820661Y-48709447D01*
X49033745Y-48567069D01*
X49033747Y-48567068D01*
X49270513Y-48468996D01*
X49521861Y-48419000D01*
X49778139Y-48419000D01*
X50029487Y-48468996D01*
X50029487Y-48468996D01*
G37*
G36*
X48396000Y-45911000D02*
G01*
X47494000Y-45911000D01*
X47494000Y-43909000D01*
X48396000Y-43909000D01*
X48396000Y-45911000D01*
X48396000Y-45911000D01*
G37*
G36*
X40917395Y-41630546D02*
G01*
X41090466Y-41702234D01*
X41090467Y-41702235D01*
X41246227Y-41806310D01*
X41378690Y-41938773D01*
X41378691Y-41938775D01*
X41482766Y-42094534D01*
X41554454Y-42267605D01*
X41591000Y-42451333D01*
X41591000Y-42638667D01*
X41554454Y-42822395D01*
X41482766Y-42995466D01*
X41482765Y-42995467D01*
X41378690Y-43151227D01*
X41246227Y-43283690D01*
X41167818Y-43336081D01*
X41090466Y-43387766D01*
X40917395Y-43459454D01*
X40733667Y-43496000D01*
X40546333Y-43496000D01*
X40362605Y-43459454D01*
X40189534Y-43387766D01*
X40112182Y-43336081D01*
X40033773Y-43283690D01*
X39901310Y-43151227D01*
X39797235Y-42995467D01*
X39797234Y-42995466D01*
X39725546Y-42822395D01*
X39689000Y-42638667D01*
X39689000Y-42451333D01*
X39725546Y-42267605D01*
X39797234Y-42094534D01*
X39901309Y-41938775D01*
X39901310Y-41938773D01*
X40033773Y-41806310D01*
X40189533Y-41702235D01*
X40189534Y-41702234D01*
X40362605Y-41630546D01*
X40546333Y-41594000D01*
X40733667Y-41594000D01*
X40917395Y-41630546D01*
X40917395Y-41630546D01*
G37*
G36*
X63777395Y-41630546D02*
G01*
X63950466Y-41702234D01*
X63950467Y-41702235D01*
X64106227Y-41806310D01*
X64238690Y-41938773D01*
X64238691Y-41938775D01*
X64342766Y-42094534D01*
X64414454Y-42267605D01*
X64451000Y-42451333D01*
X64451000Y-42638667D01*
X64414454Y-42822395D01*
X64342766Y-42995466D01*
X64342765Y-42995467D01*
X64238690Y-43151227D01*
X64106227Y-43283690D01*
X64027818Y-43336081D01*
X63950466Y-43387766D01*
X63777395Y-43459454D01*
X63593667Y-43496000D01*
X63406333Y-43496000D01*
X63222605Y-43459454D01*
X63049534Y-43387766D01*
X62972182Y-43336081D01*
X62893773Y-43283690D01*
X62761310Y-43151227D01*
X62657235Y-42995467D01*
X62657234Y-42995466D01*
X62585546Y-42822395D01*
X62549000Y-42638667D01*
X62549000Y-42451333D01*
X62585546Y-42267605D01*
X62657234Y-42094534D01*
X62761309Y-41938775D01*
X62761310Y-41938773D01*
X62893773Y-41806310D01*
X63049533Y-41702235D01*
X63049534Y-41702234D01*
X63222605Y-41630546D01*
X63406333Y-41594000D01*
X63593667Y-41594000D01*
X63777395Y-41630546D01*
X63777395Y-41630546D01*
G37*
G36*
X47446000Y-42911000D02*
G01*
X46544000Y-42911000D01*
X46544000Y-40909000D01*
X47446000Y-40909000D01*
X47446000Y-42911000D01*
X47446000Y-42911000D01*
G37*
G36*
X49346000Y-42911000D02*
G01*
X48444000Y-42911000D01*
X48444000Y-40909000D01*
X49346000Y-40909000D01*
X49346000Y-42911000D01*
X49346000Y-42911000D01*
G37*
G36*
X63777395Y-39090546D02*
G01*
X63950466Y-39162234D01*
X63950467Y-39162235D01*
X64106227Y-39266310D01*
X64238690Y-39398773D01*
X64238691Y-39398775D01*
X64342766Y-39554534D01*
X64414454Y-39727605D01*
X64451000Y-39911333D01*
X64451000Y-40098667D01*
X64414454Y-40282395D01*
X64342766Y-40455466D01*
X64342765Y-40455467D01*
X64238690Y-40611227D01*
X64106227Y-40743690D01*
X64027818Y-40796081D01*
X63950466Y-40847766D01*
X63777395Y-40919454D01*
X63593667Y-40956000D01*
X63406333Y-40956000D01*
X63222605Y-40919454D01*
X63049534Y-40847766D01*
X62972182Y-40796081D01*
X62893773Y-40743690D01*
X62761310Y-40611227D01*
X62657235Y-40455467D01*
X62657234Y-40455466D01*
X62585546Y-40282395D01*
X62549000Y-40098667D01*
X62549000Y-39911333D01*
X62585546Y-39727605D01*
X62657234Y-39554534D01*
X62761309Y-39398775D01*
X62761310Y-39398773D01*
X62893773Y-39266310D01*
X63049533Y-39162235D01*
X63049534Y-39162234D01*
X63222605Y-39090546D01*
X63406333Y-39054000D01*
X63593667Y-39054000D01*
X63777395Y-39090546D01*
X63777395Y-39090546D01*
G37*
G36*
X40917395Y-39090546D02*
G01*
X41090466Y-39162234D01*
X41090467Y-39162235D01*
X41246227Y-39266310D01*
X41378690Y-39398773D01*
X41378691Y-39398775D01*
X41482766Y-39554534D01*
X41554454Y-39727605D01*
X41591000Y-39911333D01*
X41591000Y-40098667D01*
X41554454Y-40282395D01*
X41482766Y-40455466D01*
X41482765Y-40455467D01*
X41378690Y-40611227D01*
X41246227Y-40743690D01*
X41167818Y-40796081D01*
X41090466Y-40847766D01*
X40917395Y-40919454D01*
X40733667Y-40956000D01*
X40546333Y-40956000D01*
X40362605Y-40919454D01*
X40189534Y-40847766D01*
X40112182Y-40796081D01*
X40033773Y-40743690D01*
X39901310Y-40611227D01*
X39797235Y-40455467D01*
X39797234Y-40455466D01*
X39725546Y-40282395D01*
X39689000Y-40098667D01*
X39689000Y-39911333D01*
X39725546Y-39727605D01*
X39797234Y-39554534D01*
X39901309Y-39398775D01*
X39901310Y-39398773D01*
X40033773Y-39266310D01*
X40189533Y-39162235D01*
X40189534Y-39162234D01*
X40362605Y-39090546D01*
X40546333Y-39054000D01*
X40733667Y-39054000D01*
X40917395Y-39090546D01*
X40917395Y-39090546D01*
G37*
G36*
X63777395Y-36550546D02*
G01*
X63950466Y-36622234D01*
X63950467Y-36622235D01*
X64106227Y-36726310D01*
X64238690Y-36858773D01*
X64238691Y-36858775D01*
X64342766Y-37014534D01*
X64414454Y-37187605D01*
X64451000Y-37371333D01*
X64451000Y-37558667D01*
X64414454Y-37742395D01*
X64342766Y-37915466D01*
X64342765Y-37915467D01*
X64238690Y-38071227D01*
X64106227Y-38203690D01*
X64027818Y-38256081D01*
X63950466Y-38307766D01*
X63777395Y-38379454D01*
X63593667Y-38416000D01*
X63406333Y-38416000D01*
X63222605Y-38379454D01*
X63049534Y-38307766D01*
X62972182Y-38256081D01*
X62893773Y-38203690D01*
X62761310Y-38071227D01*
X62657235Y-37915467D01*
X62657234Y-37915466D01*
X62585546Y-37742395D01*
X62549000Y-37558667D01*
X62549000Y-37371333D01*
X62585546Y-37187605D01*
X62657234Y-37014534D01*
X62761309Y-36858775D01*
X62761310Y-36858773D01*
X62893773Y-36726310D01*
X63049533Y-36622235D01*
X63049534Y-36622234D01*
X63222605Y-36550546D01*
X63406333Y-36514000D01*
X63593667Y-36514000D01*
X63777395Y-36550546D01*
X63777395Y-36550546D01*
G37*
G36*
X40917395Y-36550546D02*
G01*
X41090466Y-36622234D01*
X41090467Y-36622235D01*
X41246227Y-36726310D01*
X41378690Y-36858773D01*
X41378691Y-36858775D01*
X41482766Y-37014534D01*
X41554454Y-37187605D01*
X41591000Y-37371333D01*
X41591000Y-37558667D01*
X41554454Y-37742395D01*
X41482766Y-37915466D01*
X41482765Y-37915467D01*
X41378690Y-38071227D01*
X41246227Y-38203690D01*
X41167818Y-38256081D01*
X41090466Y-38307766D01*
X40917395Y-38379454D01*
X40733667Y-38416000D01*
X40546333Y-38416000D01*
X40362605Y-38379454D01*
X40189534Y-38307766D01*
X40112182Y-38256081D01*
X40033773Y-38203690D01*
X39901310Y-38071227D01*
X39797235Y-37915467D01*
X39797234Y-37915466D01*
X39725546Y-37742395D01*
X39689000Y-37558667D01*
X39689000Y-37371333D01*
X39725546Y-37187605D01*
X39797234Y-37014534D01*
X39901309Y-36858775D01*
X39901310Y-36858773D01*
X40033773Y-36726310D01*
X40189533Y-36622235D01*
X40189534Y-36622234D01*
X40362605Y-36550546D01*
X40546333Y-36514000D01*
X40733667Y-36514000D01*
X40917395Y-36550546D01*
X40917395Y-36550546D01*
G37*
G36*
X47691000Y-37791000D02*
G01*
X46289000Y-37791000D01*
X46289000Y-36189000D01*
X47691000Y-36189000D01*
X47691000Y-37791000D01*
X47691000Y-37791000D01*
G37*
G36*
X60391000Y-35886000D02*
G01*
X58989000Y-35886000D01*
X58989000Y-34284000D01*
X60391000Y-34284000D01*
X60391000Y-35886000D01*
X60391000Y-35886000D01*
G37*
G36*
X63777395Y-34010546D02*
G01*
X63950466Y-34082234D01*
X63950467Y-34082235D01*
X64106227Y-34186310D01*
X64238690Y-34318773D01*
X64238691Y-34318775D01*
X64342766Y-34474534D01*
X64414454Y-34647605D01*
X64451000Y-34831333D01*
X64451000Y-35018667D01*
X64414454Y-35202395D01*
X64342766Y-35375466D01*
X64342765Y-35375467D01*
X64238690Y-35531227D01*
X64106227Y-35663690D01*
X64027818Y-35716081D01*
X63950466Y-35767766D01*
X63777395Y-35839454D01*
X63593667Y-35876000D01*
X63406333Y-35876000D01*
X63222605Y-35839454D01*
X63049534Y-35767766D01*
X62972182Y-35716081D01*
X62893773Y-35663690D01*
X62761310Y-35531227D01*
X62657235Y-35375467D01*
X62657234Y-35375466D01*
X62585546Y-35202395D01*
X62549000Y-35018667D01*
X62549000Y-34831333D01*
X62585546Y-34647605D01*
X62657234Y-34474534D01*
X62761309Y-34318775D01*
X62761310Y-34318773D01*
X62893773Y-34186310D01*
X63049533Y-34082235D01*
X63049534Y-34082234D01*
X63222605Y-34010546D01*
X63406333Y-33974000D01*
X63593667Y-33974000D01*
X63777395Y-34010546D01*
X63777395Y-34010546D01*
G37*
G36*
X40917395Y-34010546D02*
G01*
X41090466Y-34082234D01*
X41090467Y-34082235D01*
X41246227Y-34186310D01*
X41378690Y-34318773D01*
X41378691Y-34318775D01*
X41482766Y-34474534D01*
X41554454Y-34647605D01*
X41591000Y-34831333D01*
X41591000Y-35018667D01*
X41554454Y-35202395D01*
X41482766Y-35375466D01*
X41482765Y-35375467D01*
X41378690Y-35531227D01*
X41246227Y-35663690D01*
X41167818Y-35716081D01*
X41090466Y-35767766D01*
X40917395Y-35839454D01*
X40733667Y-35876000D01*
X40546333Y-35876000D01*
X40362605Y-35839454D01*
X40189534Y-35767766D01*
X40112182Y-35716081D01*
X40033773Y-35663690D01*
X39901310Y-35531227D01*
X39797235Y-35375467D01*
X39797234Y-35375466D01*
X39725546Y-35202395D01*
X39689000Y-35018667D01*
X39689000Y-34831333D01*
X39725546Y-34647605D01*
X39797234Y-34474534D01*
X39901309Y-34318775D01*
X39901310Y-34318773D01*
X40033773Y-34186310D01*
X40189533Y-34082235D01*
X40189534Y-34082234D01*
X40362605Y-34010546D01*
X40546333Y-33974000D01*
X40733667Y-33974000D01*
X40917395Y-34010546D01*
X40917395Y-34010546D01*
G37*
G36*
X47691000Y-35091000D02*
G01*
X46289000Y-35091000D01*
X46289000Y-33489000D01*
X47691000Y-33489000D01*
X47691000Y-35091000D01*
X47691000Y-35091000D01*
G37*
G36*
X40917395Y-31470546D02*
G01*
X41090466Y-31542234D01*
X41090467Y-31542235D01*
X41246227Y-31646310D01*
X41378690Y-31778773D01*
X41378691Y-31778775D01*
X41482766Y-31934534D01*
X41554454Y-32107605D01*
X41591000Y-32291333D01*
X41591000Y-32478667D01*
X41554454Y-32662395D01*
X41482766Y-32835466D01*
X41482765Y-32835467D01*
X41378690Y-32991227D01*
X41246227Y-33123690D01*
X41167818Y-33176081D01*
X41090466Y-33227766D01*
X40917395Y-33299454D01*
X40733667Y-33336000D01*
X40546333Y-33336000D01*
X40362605Y-33299454D01*
X40189534Y-33227766D01*
X40112182Y-33176081D01*
X40033773Y-33123690D01*
X39901310Y-32991227D01*
X39797235Y-32835467D01*
X39797234Y-32835466D01*
X39725546Y-32662395D01*
X39689000Y-32478667D01*
X39689000Y-32291333D01*
X39725546Y-32107605D01*
X39797234Y-31934534D01*
X39901309Y-31778775D01*
X39901310Y-31778773D01*
X40033773Y-31646310D01*
X40189533Y-31542235D01*
X40189534Y-31542234D01*
X40362605Y-31470546D01*
X40546333Y-31434000D01*
X40733667Y-31434000D01*
X40917395Y-31470546D01*
X40917395Y-31470546D01*
G37*
G36*
X63777395Y-31470546D02*
G01*
X63950466Y-31542234D01*
X63950467Y-31542235D01*
X64106227Y-31646310D01*
X64238690Y-31778773D01*
X64238691Y-31778775D01*
X64342766Y-31934534D01*
X64414454Y-32107605D01*
X64451000Y-32291333D01*
X64451000Y-32478667D01*
X64414454Y-32662395D01*
X64342766Y-32835466D01*
X64342765Y-32835467D01*
X64238690Y-32991227D01*
X64106227Y-33123690D01*
X64027818Y-33176081D01*
X63950466Y-33227766D01*
X63777395Y-33299454D01*
X63593667Y-33336000D01*
X63406333Y-33336000D01*
X63222605Y-33299454D01*
X63049534Y-33227766D01*
X62972182Y-33176081D01*
X62893773Y-33123690D01*
X62761310Y-32991227D01*
X62657235Y-32835467D01*
X62657234Y-32835466D01*
X62585546Y-32662395D01*
X62549000Y-32478667D01*
X62549000Y-32291333D01*
X62585546Y-32107605D01*
X62657234Y-31934534D01*
X62761309Y-31778775D01*
X62761310Y-31778773D01*
X62893773Y-31646310D01*
X63049533Y-31542235D01*
X63049534Y-31542234D01*
X63222605Y-31470546D01*
X63406333Y-31434000D01*
X63593667Y-31434000D01*
X63777395Y-31470546D01*
X63777395Y-31470546D01*
G37*
G36*
X60391000Y-33186000D02*
G01*
X58989000Y-33186000D01*
X58989000Y-31584000D01*
X60391000Y-31584000D01*
X60391000Y-33186000D01*
X60391000Y-33186000D01*
G37*
G36*
X63777395Y-28930546D02*
G01*
X63950466Y-29002234D01*
X63950467Y-29002235D01*
X64106227Y-29106310D01*
X64238690Y-29238773D01*
X64238691Y-29238775D01*
X64342766Y-29394534D01*
X64414454Y-29567605D01*
X64451000Y-29751333D01*
X64451000Y-29938667D01*
X64414454Y-30122395D01*
X64342766Y-30295466D01*
X64342765Y-30295467D01*
X64238690Y-30451227D01*
X64106227Y-30583690D01*
X64027818Y-30636081D01*
X63950466Y-30687766D01*
X63777395Y-30759454D01*
X63593667Y-30796000D01*
X63406333Y-30796000D01*
X63222605Y-30759454D01*
X63049534Y-30687766D01*
X62972182Y-30636081D01*
X62893773Y-30583690D01*
X62761310Y-30451227D01*
X62657235Y-30295467D01*
X62657234Y-30295466D01*
X62585546Y-30122395D01*
X62549000Y-29938667D01*
X62549000Y-29751333D01*
X62585546Y-29567605D01*
X62657234Y-29394534D01*
X62761309Y-29238775D01*
X62761310Y-29238773D01*
X62893773Y-29106310D01*
X63049533Y-29002235D01*
X63049534Y-29002234D01*
X63222605Y-28930546D01*
X63406333Y-28894000D01*
X63593667Y-28894000D01*
X63777395Y-28930546D01*
X63777395Y-28930546D01*
G37*
G36*
X40917395Y-28930546D02*
G01*
X41090466Y-29002234D01*
X41090467Y-29002235D01*
X41246227Y-29106310D01*
X41378690Y-29238773D01*
X41378691Y-29238775D01*
X41482766Y-29394534D01*
X41554454Y-29567605D01*
X41591000Y-29751333D01*
X41591000Y-29938667D01*
X41554454Y-30122395D01*
X41482766Y-30295466D01*
X41482765Y-30295467D01*
X41378690Y-30451227D01*
X41246227Y-30583690D01*
X41167818Y-30636081D01*
X41090466Y-30687766D01*
X40917395Y-30759454D01*
X40733667Y-30796000D01*
X40546333Y-30796000D01*
X40362605Y-30759454D01*
X40189534Y-30687766D01*
X40112182Y-30636081D01*
X40033773Y-30583690D01*
X39901310Y-30451227D01*
X39797235Y-30295467D01*
X39797234Y-30295466D01*
X39725546Y-30122395D01*
X39689000Y-29938667D01*
X39689000Y-29751333D01*
X39725546Y-29567605D01*
X39797234Y-29394534D01*
X39901309Y-29238775D01*
X39901310Y-29238773D01*
X40033773Y-29106310D01*
X40189533Y-29002235D01*
X40189534Y-29002234D01*
X40362605Y-28930546D01*
X40546333Y-28894000D01*
X40733667Y-28894000D01*
X40917395Y-28930546D01*
X40917395Y-28930546D01*
G37*
G36*
X63777395Y-26390546D02*
G01*
X63950466Y-26462234D01*
X63950467Y-26462235D01*
X64106227Y-26566310D01*
X64238690Y-26698773D01*
X64238691Y-26698775D01*
X64342766Y-26854534D01*
X64414454Y-27027605D01*
X64451000Y-27211333D01*
X64451000Y-27398667D01*
X64414454Y-27582395D01*
X64342766Y-27755466D01*
X64342765Y-27755467D01*
X64238690Y-27911227D01*
X64106227Y-28043690D01*
X64027818Y-28096081D01*
X63950466Y-28147766D01*
X63777395Y-28219454D01*
X63593667Y-28256000D01*
X63406333Y-28256000D01*
X63222605Y-28219454D01*
X63049534Y-28147766D01*
X62972182Y-28096081D01*
X62893773Y-28043690D01*
X62761310Y-27911227D01*
X62657235Y-27755467D01*
X62657234Y-27755466D01*
X62585546Y-27582395D01*
X62549000Y-27398667D01*
X62549000Y-27211333D01*
X62585546Y-27027605D01*
X62657234Y-26854534D01*
X62761309Y-26698775D01*
X62761310Y-26698773D01*
X62893773Y-26566310D01*
X63049533Y-26462235D01*
X63049534Y-26462234D01*
X63222605Y-26390546D01*
X63406333Y-26354000D01*
X63593667Y-26354000D01*
X63777395Y-26390546D01*
X63777395Y-26390546D01*
G37*
G36*
X40917395Y-26390546D02*
G01*
X41090466Y-26462234D01*
X41090467Y-26462235D01*
X41246227Y-26566310D01*
X41378690Y-26698773D01*
X41378691Y-26698775D01*
X41482766Y-26854534D01*
X41554454Y-27027605D01*
X41591000Y-27211333D01*
X41591000Y-27398667D01*
X41554454Y-27582395D01*
X41482766Y-27755466D01*
X41482765Y-27755467D01*
X41378690Y-27911227D01*
X41246227Y-28043690D01*
X41167818Y-28096081D01*
X41090466Y-28147766D01*
X40917395Y-28219454D01*
X40733667Y-28256000D01*
X40546333Y-28256000D01*
X40362605Y-28219454D01*
X40189534Y-28147766D01*
X40112182Y-28096081D01*
X40033773Y-28043690D01*
X39901310Y-27911227D01*
X39797235Y-27755467D01*
X39797234Y-27755466D01*
X39725546Y-27582395D01*
X39689000Y-27398667D01*
X39689000Y-27211333D01*
X39725546Y-27027605D01*
X39797234Y-26854534D01*
X39901309Y-26698775D01*
X39901310Y-26698773D01*
X40033773Y-26566310D01*
X40189533Y-26462235D01*
X40189534Y-26462234D01*
X40362605Y-26390546D01*
X40546333Y-26354000D01*
X40733667Y-26354000D01*
X40917395Y-26390546D01*
X40917395Y-26390546D01*
G37*
G36*
X63777395Y-23850546D02*
G01*
X63950466Y-23922234D01*
X63950467Y-23922235D01*
X64106227Y-24026310D01*
X64238690Y-24158773D01*
X64238691Y-24158775D01*
X64342766Y-24314534D01*
X64414454Y-24487605D01*
X64451000Y-24671333D01*
X64451000Y-24858667D01*
X64414454Y-25042395D01*
X64342766Y-25215466D01*
X64342765Y-25215467D01*
X64238690Y-25371227D01*
X64106227Y-25503690D01*
X64027818Y-25556081D01*
X63950466Y-25607766D01*
X63777395Y-25679454D01*
X63593667Y-25716000D01*
X63406333Y-25716000D01*
X63222605Y-25679454D01*
X63049534Y-25607766D01*
X62972182Y-25556081D01*
X62893773Y-25503690D01*
X62761310Y-25371227D01*
X62657235Y-25215467D01*
X62657234Y-25215466D01*
X62585546Y-25042395D01*
X62549000Y-24858667D01*
X62549000Y-24671333D01*
X62585546Y-24487605D01*
X62657234Y-24314534D01*
X62761309Y-24158775D01*
X62761310Y-24158773D01*
X62893773Y-24026310D01*
X63049533Y-23922235D01*
X63049534Y-23922234D01*
X63222605Y-23850546D01*
X63406333Y-23814000D01*
X63593667Y-23814000D01*
X63777395Y-23850546D01*
X63777395Y-23850546D01*
G37*
G36*
X40917395Y-23850546D02*
G01*
X41090466Y-23922234D01*
X41090467Y-23922235D01*
X41246227Y-24026310D01*
X41378690Y-24158773D01*
X41378691Y-24158775D01*
X41482766Y-24314534D01*
X41554454Y-24487605D01*
X41591000Y-24671333D01*
X41591000Y-24858667D01*
X41554454Y-25042395D01*
X41482766Y-25215466D01*
X41482765Y-25215467D01*
X41378690Y-25371227D01*
X41246227Y-25503690D01*
X41167818Y-25556081D01*
X41090466Y-25607766D01*
X40917395Y-25679454D01*
X40733667Y-25716000D01*
X40546333Y-25716000D01*
X40362605Y-25679454D01*
X40189534Y-25607766D01*
X40112182Y-25556081D01*
X40033773Y-25503690D01*
X39901310Y-25371227D01*
X39797235Y-25215467D01*
X39797234Y-25215466D01*
X39725546Y-25042395D01*
X39689000Y-24858667D01*
X39689000Y-24671333D01*
X39725546Y-24487605D01*
X39797234Y-24314534D01*
X39901309Y-24158775D01*
X39901310Y-24158773D01*
X40033773Y-24026310D01*
X40189533Y-23922235D01*
X40189534Y-23922234D01*
X40362605Y-23850546D01*
X40546333Y-23814000D01*
X40733667Y-23814000D01*
X40917395Y-23850546D01*
X40917395Y-23850546D01*
G37*
G36*
X44829487Y-19068996D02*
G01*
X45066253Y-19167068D01*
X45066255Y-19167069D01*
X45279339Y-19309447D01*
X45460553Y-19490661D01*
X45602932Y-19703747D01*
X45701004Y-19940513D01*
X45751000Y-20191861D01*
X45751000Y-20448139D01*
X45701004Y-20699487D01*
X45602932Y-20936253D01*
X45602931Y-20936255D01*
X45460553Y-21149339D01*
X45279339Y-21330553D01*
X45066255Y-21472931D01*
X45066254Y-21472932D01*
X45066253Y-21472932D01*
X44829487Y-21571004D01*
X44578139Y-21621000D01*
X44321861Y-21621000D01*
X44070513Y-21571004D01*
X43833747Y-21472932D01*
X43833746Y-21472932D01*
X43833745Y-21472931D01*
X43620661Y-21330553D01*
X43439447Y-21149339D01*
X43297069Y-20936255D01*
X43297068Y-20936253D01*
X43198996Y-20699487D01*
X43149000Y-20448139D01*
X43149000Y-20191861D01*
X43198996Y-19940513D01*
X43297068Y-19703747D01*
X43439447Y-19490661D01*
X43620661Y-19309447D01*
X43833745Y-19167069D01*
X43833747Y-19167068D01*
X44070513Y-19068996D01*
X44321861Y-19019000D01*
X44578139Y-19019000D01*
X44829487Y-19068996D01*
X44829487Y-19068996D01*
G37*
G36*
X60229487Y-19068996D02*
G01*
X60466253Y-19167068D01*
X60466255Y-19167069D01*
X60679339Y-19309447D01*
X60860553Y-19490661D01*
X61002932Y-19703747D01*
X61101004Y-19940513D01*
X61151000Y-20191861D01*
X61151000Y-20448139D01*
X61101004Y-20699487D01*
X61002932Y-20936253D01*
X61002931Y-20936255D01*
X60860553Y-21149339D01*
X60679339Y-21330553D01*
X60466255Y-21472931D01*
X60466254Y-21472932D01*
X60466253Y-21472932D01*
X60229487Y-21571004D01*
X59978139Y-21621000D01*
X59721861Y-21621000D01*
X59470513Y-21571004D01*
X59233747Y-21472932D01*
X59233746Y-21472932D01*
X59233745Y-21472931D01*
X59020661Y-21330553D01*
X58839447Y-21149339D01*
X58697069Y-20936255D01*
X58697068Y-20936253D01*
X58598996Y-20699487D01*
X58549000Y-20448139D01*
X58549000Y-20191861D01*
X58598996Y-19940513D01*
X58697068Y-19703747D01*
X58839447Y-19490661D01*
X59020661Y-19309447D01*
X59233745Y-19167069D01*
X59233747Y-19167068D01*
X59470513Y-19068996D01*
X59721861Y-19019000D01*
X59978139Y-19019000D01*
X60229487Y-19068996D01*
X60229487Y-19068996D01*
G37*
M02*
